<svg width="1039" height="151" viewBox="0 0 1039 151" fill="none" xmlns="http://www.w3.org/2000/svg">
<g clip-path="url(#clip0_2192_776)">
<path d="M334.599 71.1208C333.748 71.1208 332.983 70.6438 332.552 69.909C330.359 66.1595 327.447 63.2814 323.815 61.2766C319.803 59.062 315.161 57.9537 309.895 57.9537C304.125 57.9537 298.984 59.25 294.469 61.8402C289.955 64.4328 286.421 68.1115 283.873 72.8771C281.32 77.6428 280.048 83.1599 280.048 89.4314C280.048 95.7016 281.32 101.241 283.873 106.047C286.421 110.856 289.955 114.555 294.469 117.147C298.984 119.739 304.125 121.034 309.895 121.034C317.671 121.034 323.981 118.861 328.832 114.513C333.021 110.757 335.808 105.844 337.188 99.7761C337.529 98.2765 336.416 96.8298 334.879 96.8298H307.372C306.064 96.8298 305.004 95.7699 305.004 94.4626V87.785C305.004 86.4771 306.064 85.4172 307.372 85.4172H350.668C351.976 85.4172 353.036 86.4771 353.036 87.785V96.3803C353.036 96.5131 353.027 96.6464 353.008 96.7776C352.067 103.473 349.673 109.636 345.825 115.266C341.937 120.952 336.877 125.486 330.649 128.872C324.421 132.258 317.501 133.952 309.895 133.952C301.7 133.952 294.219 132.05 287.447 128.245C280.673 124.441 275.301 119.153 271.332 112.381C267.36 105.609 265.375 97.9584 265.375 89.4314C265.375 80.9032 267.36 73.2527 271.332 66.4808C275.301 59.7084 280.695 54.4214 287.509 50.6162C294.323 46.8126 301.785 44.9099 309.895 44.9099C319.175 44.9099 327.431 47.1896 334.663 51.7448C340.872 55.6584 345.617 60.973 348.9 67.6891C349.671 69.2667 348.52 71.1208 346.764 71.1208H334.599Z" fill="#7AF1A7"/>
<path d="M401.131 119.278C404.347 117.523 406.961 114.889 408.969 111.378C410.975 107.866 411.979 103.602 411.979 98.5861C411.979 93.57 411.016 89.3272 409.095 85.8569C407.169 82.3887 404.62 79.7747 401.444 78.0189C398.265 76.2627 394.839 75.3851 391.16 75.3851C387.48 75.3851 384.075 76.2627 380.939 78.0189C377.804 79.7747 375.316 82.3887 373.477 85.8569C371.637 89.3272 370.719 93.57 370.719 98.5861C370.719 106.028 372.619 111.775 376.424 115.829C380.228 119.886 385.015 121.913 390.784 121.913C394.463 121.913 397.911 121.035 401.131 119.278ZM373.101 129.876C367.835 126.909 363.695 122.727 360.685 117.335C357.675 111.941 356.171 105.693 356.171 98.5861C356.171 91.5632 357.716 85.3356 360.812 79.9001C363.903 74.4663 368.127 70.2856 373.477 67.3585C378.827 64.4329 384.805 62.97 391.411 62.97C398.015 62.97 403.993 64.4329 409.344 67.3585C414.695 70.2856 418.916 74.4663 422.011 79.9001C425.103 85.3356 426.651 91.5632 426.651 98.5861C426.651 105.609 425.063 111.839 421.885 117.272C418.707 122.708 414.381 126.909 408.905 129.876C403.429 132.844 397.387 134.327 390.784 134.327C384.263 134.327 378.368 132.844 373.101 129.876Z" fill="#7AF1A7"/>
<path d="M497.129 66.4657V130.831C497.129 132.139 496.069 133.199 494.761 133.199H485.2C483.892 133.199 482.832 132.139 482.832 130.831V130.659C482.832 128.657 480.552 127.621 478.959 128.833C477.477 129.962 475.821 130.936 473.991 131.757C470.353 133.387 466.487 134.202 462.391 134.202C456.955 134.202 452.085 133.074 447.78 130.816C443.473 128.558 440.088 125.215 437.623 120.783C435.155 116.353 433.923 111.001 433.923 104.731V66.4657C433.923 65.1585 434.983 64.0985 436.291 64.0985H445.725C447.033 64.0985 448.093 65.1585 448.093 66.4657V102.599C448.093 108.788 449.64 113.531 452.733 116.832C455.827 120.137 460.048 121.786 465.4 121.786C470.749 121.786 474.995 120.137 478.129 116.832C481.264 113.531 482.832 108.788 482.832 102.599V66.4657C482.832 65.1585 483.892 64.0985 485.2 64.0985H494.761C496.069 64.0985 497.129 65.1585 497.129 66.4657Z" fill="#7AF1A7"/>
<path d="M532.305 65.9165C535.127 64.3186 538.379 63.3702 542.06 63.0722C543.451 62.9593 544.657 64.0473 544.657 65.4421V75.4003C544.657 76.7082 543.597 77.7681 542.289 77.7681H541.02C535.419 77.7681 531.176 79.1905 528.291 82.0315C525.408 84.8749 523.965 89.8071 523.965 96.8295V130.831C523.965 132.138 522.905 133.199 521.597 133.199H512.036C510.729 133.199 509.669 132.138 509.669 130.831V66.4654C509.669 65.1582 510.729 64.0982 512.036 64.0982H521.597C522.905 64.0982 523.965 65.1582 523.965 66.4654V67.4145C523.965 69.4645 526.42 70.5743 527.908 69.1623C529.224 67.9134 530.689 66.8315 532.305 65.9165Z" fill="#7AF1A7"/>
<path d="M649.811 66.355C654.117 68.6123 657.504 71.9577 659.972 76.3878C662.436 80.8202 663.671 86.1697 663.671 92.441V130.831C663.671 132.138 662.611 133.199 661.303 133.199H651.865C650.559 133.199 649.499 132.138 649.499 130.831V94.5727C649.499 88.3869 647.951 83.6421 644.857 80.3378C641.764 77.0363 637.541 75.3847 632.192 75.3847C626.84 75.3847 622.599 77.0363 619.463 80.3378C616.327 83.6421 614.76 88.3869 614.76 94.5727V130.831C614.76 132.138 613.7 133.199 612.392 133.199H602.956C601.648 133.199 600.588 132.138 600.588 130.831V94.5727C600.588 88.3869 599.04 83.6421 595.948 80.3378C592.853 77.0363 588.632 75.3847 583.283 75.3847C577.931 75.3847 573.688 77.0363 570.553 80.3378C567.417 83.6421 565.849 88.3869 565.849 94.5727V130.831C565.849 132.138 564.789 133.199 563.483 133.199H553.921C552.613 133.199 551.553 132.138 551.553 130.831V66.4654C551.553 65.1582 552.613 64.0982 553.921 64.0982H563.483C564.789 64.0982 565.849 65.1582 565.849 66.4654C565.849 68.4577 568.116 69.5035 569.704 68.3014C571.221 67.1525 572.904 66.1691 574.753 65.3519C578.348 63.7649 582.193 62.9697 586.292 62.9697C591.809 62.9697 596.741 64.1405 601.091 66.4806C604.343 68.2326 607.033 70.5697 609.164 73.4905C610.141 74.8321 612.068 74.8159 613.045 73.4749C615.036 70.7457 617.655 68.4769 620.905 66.6686C625.335 64.2035 630.1 62.9697 635.201 62.9697C640.636 62.9697 645.505 64.0982 649.811 66.355Z" fill="#7AF1A7"/>
<path d="M721.415 92.4413C722.852 92.4413 723.985 91.1605 723.776 89.7387C723.183 85.7096 721.375 82.3892 718.347 79.7747C714.667 76.5985 710.111 75.0091 704.677 75.0091C699.744 75.0091 695.524 76.5757 692.012 79.7121C689.169 82.2491 687.257 85.5132 686.279 89.5012C685.913 90.9908 687.061 92.4413 688.596 92.4413H721.415ZM736.323 103.978H688.335C686.839 103.978 685.709 105.357 685.995 106.825C686.815 111.042 688.737 114.525 691.761 117.272C695.439 120.616 699.952 122.288 705.305 122.288C712.484 122.288 717.695 119.485 720.943 113.876C721.377 113.126 722.147 112.631 723.013 112.631H733.547C735.273 112.631 736.435 114.432 735.717 116.002C733.503 120.852 730.157 124.932 725.685 128.245C720.207 132.302 713.415 134.327 705.305 134.327C698.7 134.327 692.784 132.844 687.559 129.876C682.333 126.909 678.236 122.727 675.269 117.335C672.301 111.941 670.817 105.693 670.817 98.5861C670.817 91.4804 672.259 85.2293 675.144 79.8372C678.028 74.4439 682.083 70.2856 687.308 67.3585C692.532 64.4329 698.532 62.97 705.305 62.97C711.827 62.97 717.636 64.3913 722.737 67.2335C727.836 70.0767 731.808 74.0684 734.652 79.21C737.492 84.3512 738.915 90.2684 738.915 96.9553C738.915 98.696 738.839 100.324 738.687 101.838C738.565 103.055 737.547 103.978 736.323 103.978Z" fill="#7AF1A7"/>
<path d="M765.737 75.7613C764.429 75.7613 763.369 76.8211 763.369 78.129V114.01C763.369 116.603 763.975 118.463 765.189 119.592C766.399 120.72 768.469 121.285 771.395 121.285H777.805C779.113 121.285 780.173 122.345 780.173 123.652V130.831C780.173 132.138 779.113 133.199 777.805 133.199H768.885C762.448 133.199 757.515 131.693 754.088 128.683C750.659 125.674 748.945 120.783 748.945 114.01V78.129C748.945 76.8211 747.885 75.7613 746.577 75.7613H743.161C741.855 75.7613 740.795 74.7014 740.795 73.3935V66.4654C740.795 65.1582 741.855 64.0982 743.161 64.0982H746.577C747.885 64.0982 748.945 63.0378 748.945 61.7306V49.2837C748.945 47.9763 750.005 46.9165 751.313 46.9165H761.001C762.309 46.9165 763.369 47.9763 763.369 49.2837V61.7306C763.369 63.0378 764.429 64.0982 765.737 64.0982H777.805C779.113 64.0982 780.173 65.1582 780.173 66.4654V73.3935C780.173 74.7014 779.113 75.7613 777.805 75.7613H765.737Z" fill="#7AF1A7"/>
<path d="M926 49.0788L901.569 131.504C901.271 132.51 900.348 133.199 899.299 133.199H886.689C885.625 133.199 884.692 132.489 884.408 131.465L868.793 75.2075C868.157 72.9137 864.913 72.8881 864.241 75.1715L847.637 131.514C847.343 132.515 846.428 133.204 845.385 133.213L832.895 133.31C831.828 133.318 830.888 132.613 830.597 131.587L807.236 49.0512C806.808 47.5397 807.943 46.0387 809.513 46.0387H819.717C820.8 46.0387 821.745 46.7731 822.012 47.8225L837.413 108.363C838.012 110.717 841.345 110.75 841.991 108.408L858.701 47.7772C858.984 46.7501 859.919 46.0387 860.984 46.0387H873.397C874.477 46.0387 875.421 46.77 875.691 47.8157L891.124 107.743C891.733 110.112 895.099 110.112 895.709 107.743L911.145 47.8157C911.415 46.77 912.357 46.0387 913.437 46.0387H923.729C925.312 46.0387 926.449 47.5616 926 49.0788Z" fill="#FFB667"/>
<path d="M946.715 68.8519V128.445C946.715 131.07 944.587 133.199 941.961 133.199H937.173C934.548 133.199 932.419 131.07 932.419 128.445V68.8519C932.419 66.2263 934.548 64.0982 937.173 64.0982H941.961C944.587 64.0982 946.715 66.2263 946.715 68.8519ZM933.171 52.3097C931.415 50.5535 930.539 48.3806 930.539 45.7878C930.539 43.1978 931.415 41.0222 933.171 39.2659C934.927 37.5113 937.101 36.6331 939.691 36.6331C942.201 36.6331 944.333 37.5113 946.089 39.2659C947.845 41.0222 948.721 43.1978 948.721 45.7878C948.721 48.3806 947.845 50.5535 946.089 52.3097C944.333 54.0654 942.201 54.9426 939.691 54.9426C937.101 54.9426 934.927 54.0654 933.171 52.3097Z" fill="#FFB667"/>
<path d="M988.076 100.314L1014.78 129.225C1016.18 130.741 1015.1 133.199 1013.04 133.199H1000.22C999.532 133.199 998.876 132.898 998.427 132.375L977.713 108.312C976.281 106.648 973.552 107.661 973.552 109.857V130.831C973.552 132.138 972.492 133.199 971.184 133.199H961.623C960.316 133.199 959.256 132.138 959.256 130.831V42.7634C959.256 41.4555 960.316 40.3957 961.623 40.3957H971.184C972.492 40.3957 973.552 41.4555 973.552 42.7634V87.7607C973.552 89.9774 976.325 90.9785 977.741 89.2727L997.924 64.9535C998.373 64.4118 999.041 64.0982 999.745 64.0982H1013.05C1015.11 64.0982 1016.19 66.5514 1014.79 68.0691L988.073 97.1045C987.239 98.0123 987.239 99.4087 988.076 100.314Z" fill="#FFB667"/>
<path d="M1036.76 68.8519V128.445C1036.76 131.07 1034.63 133.199 1032 133.199H1027.22C1024.59 133.199 1022.46 131.07 1022.46 128.445V68.8519C1022.46 66.2263 1024.59 64.0982 1027.22 64.0982H1032C1034.63 64.0982 1036.76 66.2263 1036.76 68.8519ZM1023.21 52.3097C1021.46 50.5535 1020.58 48.3806 1020.58 45.7878C1020.58 43.1978 1021.46 41.0222 1023.21 39.2659C1024.97 37.5113 1027.14 36.6331 1029.73 36.6331C1032.24 36.6331 1034.37 37.5113 1036.13 39.2659C1037.89 41.0222 1038.76 43.1978 1038.76 45.7878C1038.76 48.3806 1037.89 50.5535 1036.13 52.3097C1034.37 54.0654 1032.24 54.9426 1029.73 54.9426C1027.14 54.9426 1024.97 54.0654 1023.21 52.3097Z" fill="#FFB667"/>
<path d="M13.4506 136.78C15.6902 136.78 17.4694 134.92 17.3865 132.682C17.3402 131.421 17.3168 130.155 17.3168 128.887C17.3168 126.237 17.4184 123.598 17.6214 120.994C21.658 67.5375 66.4433 25.2776 120.926 25.2776C123.745 25.2776 126.552 25.3907 129.315 25.6156C134.704 26.0443 139.969 26.8901 145.1 28.1417C152.215 29.8328 159.048 32.2683 165.508 35.3693C171.056 38.0303 176.344 41.1647 181.293 44.7276C205.445 62.1141 221.852 89.6261 224.219 120.994C224.423 123.598 224.524 126.237 224.524 128.887C224.524 130.155 224.5 131.421 224.453 132.682C224.371 134.92 226.151 136.78 228.391 136.78C230.516 136.78 232.265 135.097 232.343 132.973C232.392 131.616 232.416 130.253 232.416 128.887C232.416 126.237 232.327 123.598 232.135 120.994C229.609 85.0256 209.956 53.7141 181.293 35.1885C176.288 31.9527 171.011 29.1 165.508 26.6984C159.003 23.8453 152.181 21.6021 145.1 20.0344C139.969 18.8844 134.693 18.0953 129.315 17.7005C128.691 17.6527 128.062 17.6303 127.436 17.5932C129.993 15.8001 131.65 12.9855 131.65 9.80947C131.65 4.38947 126.846 -0.00386456 120.92 -0.00386456C114.995 -0.00386456 110.191 4.38947 110.191 9.80947C110.191 12.9855 111.847 15.8001 114.405 17.5937C58.5594 20.8313 13.6141 65.3265 9.70585 120.994C9.51418 123.598 9.42407 126.237 9.42407 128.887C9.42407 130.253 9.44803 131.616 9.49751 132.973C9.57511 135.097 11.3246 136.78 13.4506 136.78Z" fill="#7AF1A7"/>
<path d="M117.242 47.1035C118.957 47.0253 120.326 45.6539 120.326 43.9368V35.1653C120.326 33.3472 118.8 31.9221 116.984 31.9961C68.8702 33.9612 29.863 71.8341 26.0984 119.479L25.8177 122.964C25.313 129.224 30.2573 134.583 36.5374 134.583H111.041C116.163 134.583 120.316 130.43 120.316 125.308V88.2893C120.316 82.0148 115.229 76.9284 108.954 76.9284H85.4245C83.0354 76.9284 81.0989 78.8648 81.0989 81.2539V87.7071C81.0989 90.0956 83.0354 92.0325 85.4245 92.0325H101.148C103.392 92.0325 105.211 93.8519 105.211 96.0961V117.391C105.211 118.544 104.277 119.479 103.124 119.479H43.0208C42.0802 119.479 41.3322 118.655 41.4412 117.721C45.9265 79.1617 77.9328 48.8899 117.242 47.1035Z" fill="#7AF1A7"/>
<path d="M141.899 34.2388C138.703 33.5153 135.448 32.9535 132.139 32.5675C130.451 32.3705 128.957 33.6565 128.957 35.356V125.884C128.957 130.688 132.852 134.583 137.657 134.583H209.495C213.109 134.583 216.013 131.655 216.051 128.041C216.111 122.278 215.641 116.48 214.673 110.848C212.652 99.1117 208.468 88.1169 202.559 78.2721C201.343 76.2477 198.221 77.1253 198.221 79.4863V119.464L180.948 119.477C179.703 119.478 178.693 118.469 178.693 117.224V55.5201C178.693 52.9368 177.432 50.5139 175.316 49.032C172.661 47.1743 169.908 45.4492 167.065 43.8669C165.508 43.0013 163.589 44.1216 163.589 45.9029V116.898C163.589 118.324 162.433 119.479 161.008 119.479H146.315C145.071 119.479 144.061 118.47 144.061 117.225V36.9805C144.061 35.6768 143.169 34.5268 141.899 34.2388Z" fill="#FFB667"/>
<path d="M238.005 143.103H3.83489C1.71719 143.103 0 144.82 0 146.938C0 149.056 1.71719 150.773 3.83489 150.773H238.005C240.124 150.773 241.84 149.056 241.84 146.938C241.84 144.82 240.124 143.103 238.005 143.103Z" fill="#7AF1A7"/>
<path d="M334.599 71.1208C333.748 71.1208 332.983 70.6438 332.552 69.909C330.359 66.1595 327.447 63.2814 323.815 61.2766C319.803 59.062 315.161 57.9537 309.895 57.9537C304.125 57.9537 298.984 59.25 294.469 61.8402C289.955 64.4328 286.421 68.1115 283.873 72.8771C281.32 77.6428 280.048 83.1599 280.048 89.4314C280.048 95.7016 281.32 101.241 283.873 106.047C286.421 110.856 289.955 114.555 294.469 117.147C298.984 119.739 304.125 121.034 309.895 121.034C317.671 121.034 323.981 118.861 328.832 114.513C333.021 110.757 335.808 105.844 337.188 99.7761C337.529 98.2765 336.416 96.8298 334.879 96.8298H307.372C306.064 96.8298 305.004 95.7699 305.004 94.4626V87.785C305.004 86.4771 306.064 85.4172 307.372 85.4172H350.668C351.976 85.4172 353.036 86.4771 353.036 87.785V96.3803C353.036 96.5131 353.027 96.6464 353.008 96.7776C352.067 103.473 349.673 109.636 345.825 115.266C341.937 120.952 336.877 125.486 330.649 128.872C324.421 132.258 317.501 133.952 309.895 133.952C301.7 133.952 294.219 132.05 287.447 128.245C280.673 124.441 275.301 119.153 271.332 112.381C267.36 105.609 265.375 97.9584 265.375 89.4314C265.375 80.9032 267.36 73.2527 271.332 66.4808C275.301 59.7084 280.695 54.4214 287.509 50.6162C294.323 46.8126 301.785 44.9099 309.895 44.9099C319.175 44.9099 327.431 47.1896 334.663 51.7448C340.872 55.6584 345.617 60.973 348.9 67.6891C349.671 69.2667 348.52 71.1208 346.764 71.1208H334.599Z" fill="#7AF1A7"/>
<path d="M401.131 119.278C404.347 117.523 406.961 114.889 408.969 111.378C410.975 107.866 411.979 103.602 411.979 98.5861C411.979 93.57 411.016 89.3272 409.095 85.8569C407.169 82.3887 404.62 79.7747 401.444 78.0189C398.265 76.2627 394.839 75.3851 391.16 75.3851C387.48 75.3851 384.075 76.2627 380.939 78.0189C377.804 79.7747 375.316 82.3887 373.477 85.8569C371.637 89.3272 370.719 93.57 370.719 98.5861C370.719 106.028 372.619 111.775 376.424 115.829C380.228 119.886 385.015 121.913 390.784 121.913C394.463 121.913 397.911 121.035 401.131 119.278ZM373.101 129.876C367.835 126.909 363.695 122.727 360.685 117.335C357.675 111.941 356.171 105.693 356.171 98.5861C356.171 91.5632 357.716 85.3356 360.812 79.9001C363.903 74.4663 368.127 70.2856 373.477 67.3585C378.827 64.4329 384.805 62.97 391.411 62.97C398.015 62.97 403.993 64.4329 409.344 67.3585C414.695 70.2856 418.916 74.4663 422.011 79.9001C425.103 85.3356 426.651 91.5632 426.651 98.5861C426.651 105.609 425.063 111.839 421.885 117.272C418.707 122.708 414.381 126.909 408.905 129.876C403.429 132.844 397.387 134.327 390.784 134.327C384.263 134.327 378.368 132.844 373.101 129.876Z" fill="#7AF1A7"/>
<path d="M497.129 66.4657V130.831C497.129 132.139 496.069 133.199 494.761 133.199H485.2C483.892 133.199 482.832 132.139 482.832 130.831V130.659C482.832 128.657 480.552 127.621 478.959 128.833C477.477 129.962 475.821 130.936 473.991 131.757C470.353 133.387 466.487 134.202 462.391 134.202C456.955 134.202 452.085 133.074 447.78 130.816C443.473 128.558 440.088 125.215 437.623 120.783C435.155 116.353 433.923 111.001 433.923 104.731V66.4657C433.923 65.1585 434.983 64.0985 436.291 64.0985H445.725C447.033 64.0985 448.093 65.1585 448.093 66.4657V102.599C448.093 108.788 449.64 113.531 452.733 116.832C455.827 120.137 460.048 121.786 465.4 121.786C470.749 121.786 474.995 120.137 478.129 116.832C481.264 113.531 482.832 108.788 482.832 102.599V66.4657C482.832 65.1585 483.892 64.0985 485.2 64.0985H494.761C496.069 64.0985 497.129 65.1585 497.129 66.4657Z" fill="#7AF1A7"/>
<path d="M532.305 65.9165C535.127 64.3186 538.379 63.3702 542.06 63.0722C543.451 62.9593 544.657 64.0473 544.657 65.4421V75.4003C544.657 76.7082 543.597 77.7681 542.289 77.7681H541.02C535.419 77.7681 531.176 79.1905 528.291 82.0315C525.408 84.8749 523.965 89.8071 523.965 96.8295V130.831C523.965 132.138 522.905 133.199 521.597 133.199H512.036C510.729 133.199 509.669 132.138 509.669 130.831V66.4654C509.669 65.1582 510.729 64.0982 512.036 64.0982H521.597C522.905 64.0982 523.965 65.1582 523.965 66.4654V67.4145C523.965 69.4645 526.42 70.5743 527.908 69.1623C529.224 67.9134 530.689 66.8315 532.305 65.9165Z" fill="#7AF1A7"/>
<path d="M649.811 66.355C654.117 68.6123 657.504 71.9577 659.972 76.3878C662.436 80.8202 663.671 86.1697 663.671 92.441V130.831C663.671 132.138 662.611 133.199 661.303 133.199H651.865C650.559 133.199 649.499 132.138 649.499 130.831V94.5727C649.499 88.3869 647.951 83.6421 644.857 80.3378C641.764 77.0363 637.541 75.3847 632.192 75.3847C626.84 75.3847 622.599 77.0363 619.463 80.3378C616.327 83.6421 614.76 88.3869 614.76 94.5727V130.831C614.76 132.138 613.7 133.199 612.392 133.199H602.956C601.648 133.199 600.588 132.138 600.588 130.831V94.5727C600.588 88.3869 599.04 83.6421 595.948 80.3378C592.853 77.0363 588.632 75.3847 583.283 75.3847C577.931 75.3847 573.688 77.0363 570.553 80.3378C567.417 83.6421 565.849 88.3869 565.849 94.5727V130.831C565.849 132.138 564.789 133.199 563.483 133.199H553.921C552.613 133.199 551.553 132.138 551.553 130.831V66.4654C551.553 65.1582 552.613 64.0982 553.921 64.0982H563.483C564.789 64.0982 565.849 65.1582 565.849 66.4654C565.849 68.4577 568.116 69.5035 569.704 68.3014C571.221 67.1525 572.904 66.1691 574.753 65.3519C578.348 63.7649 582.193 62.9697 586.292 62.9697C591.809 62.9697 596.741 64.1405 601.091 66.4806C604.343 68.2326 607.033 70.5697 609.164 73.4905C610.141 74.8321 612.068 74.8159 613.045 73.4749C615.036 70.7457 617.655 68.4769 620.905 66.6686C625.335 64.2035 630.1 62.9697 635.201 62.9697C640.636 62.9697 645.505 64.0982 649.811 66.355Z" fill="#7AF1A7"/>
<path d="M721.415 92.4413C722.852 92.4413 723.985 91.1605 723.776 89.7387C723.183 85.7096 721.375 82.3892 718.347 79.7747C714.667 76.5985 710.111 75.0091 704.677 75.0091C699.744 75.0091 695.524 76.5757 692.012 79.7121C689.169 82.2491 687.257 85.5132 686.279 89.5012C685.913 90.9908 687.061 92.4413 688.596 92.4413H721.415ZM736.323 103.978H688.335C686.839 103.978 685.709 105.357 685.995 106.825C686.815 111.042 688.737 114.525 691.761 117.272C695.439 120.616 699.952 122.288 705.305 122.288C712.484 122.288 717.695 119.485 720.943 113.876C721.377 113.126 722.147 112.631 723.013 112.631H733.547C735.273 112.631 736.435 114.432 735.717 116.002C733.503 120.852 730.157 124.932 725.685 128.245C720.207 132.302 713.415 134.327 705.305 134.327C698.7 134.327 692.784 132.844 687.559 129.876C682.333 126.909 678.236 122.727 675.269 117.335C672.301 111.941 670.817 105.693 670.817 98.5861C670.817 91.4804 672.259 85.2293 675.144 79.8372C678.028 74.4439 682.083 70.2856 687.308 67.3585C692.532 64.4329 698.532 62.97 705.305 62.97C711.827 62.97 717.636 64.3913 722.737 67.2335C727.836 70.0767 731.808 74.0684 734.652 79.21C737.492 84.3512 738.915 90.2684 738.915 96.9553C738.915 98.696 738.839 100.324 738.687 101.838C738.565 103.055 737.547 103.978 736.323 103.978Z" fill="#7AF1A7"/>
<path d="M765.737 75.7613C764.429 75.7613 763.369 76.8211 763.369 78.129V114.01C763.369 116.603 763.975 118.463 765.189 119.592C766.399 120.72 768.469 121.285 771.395 121.285H777.805C779.113 121.285 780.173 122.345 780.173 123.652V130.831C780.173 132.138 779.113 133.199 777.805 133.199H768.885C762.448 133.199 757.515 131.693 754.088 128.683C750.659 125.674 748.945 120.783 748.945 114.01V78.129C748.945 76.8211 747.885 75.7613 746.577 75.7613H743.161C741.855 75.7613 740.795 74.7014 740.795 73.3935V66.4654C740.795 65.1582 741.855 64.0982 743.161 64.0982H746.577C747.885 64.0982 748.945 63.0378 748.945 61.7306V49.2837C748.945 47.9763 750.005 46.9165 751.313 46.9165H761.001C762.309 46.9165 763.369 47.9763 763.369 49.2837V61.7306C763.369 63.0378 764.429 64.0982 765.737 64.0982H777.805C779.113 64.0982 780.173 65.1582 780.173 66.4654V73.3935C780.173 74.7014 779.113 75.7613 777.805 75.7613H765.737Z" fill="#7AF1A7"/>
<path d="M926 49.0788L901.569 131.504C901.271 132.51 900.348 133.199 899.299 133.199H886.689C885.625 133.199 884.692 132.489 884.408 131.465L868.793 75.2075C868.157 72.9137 864.913 72.8881 864.241 75.1715L847.637 131.514C847.343 132.515 846.428 133.204 845.385 133.213L832.895 133.31C831.828 133.318 830.888 132.613 830.597 131.587L807.236 49.0512C806.808 47.5397 807.943 46.0387 809.513 46.0387H819.717C820.8 46.0387 821.745 46.7731 822.012 47.8225L837.413 108.363C838.012 110.717 841.345 110.75 841.991 108.408L858.701 47.7772C858.984 46.7501 859.919 46.0387 860.984 46.0387H873.397C874.477 46.0387 875.421 46.77 875.691 47.8157L891.124 107.743C891.733 110.112 895.099 110.112 895.709 107.743L911.145 47.8157C911.415 46.77 912.357 46.0387 913.437 46.0387H923.729C925.312 46.0387 926.449 47.5616 926 49.0788Z" fill="#FFB667"/>
<path d="M946.715 68.8519V128.445C946.715 131.07 944.587 133.199 941.961 133.199H937.173C934.548 133.199 932.419 131.07 932.419 128.445V68.8519C932.419 66.2263 934.548 64.0982 937.173 64.0982H941.961C944.587 64.0982 946.715 66.2263 946.715 68.8519ZM933.171 52.3097C931.415 50.5535 930.539 48.3806 930.539 45.7878C930.539 43.1978 931.415 41.0222 933.171 39.2659C934.927 37.5113 937.101 36.6331 939.691 36.6331C942.201 36.6331 944.333 37.5113 946.089 39.2659C947.845 41.0222 948.721 43.1978 948.721 45.7878C948.721 48.3806 947.845 50.5535 946.089 52.3097C944.333 54.0654 942.201 54.9426 939.691 54.9426C937.101 54.9426 934.927 54.0654 933.171 52.3097Z" fill="#FFB667"/>
<path d="M988.076 100.314L1014.78 129.225C1016.18 130.741 1015.1 133.199 1013.04 133.199H1000.22C999.532 133.199 998.876 132.898 998.427 132.375L977.713 108.312C976.281 106.648 973.552 107.661 973.552 109.857V130.831C973.552 132.138 972.492 133.199 971.184 133.199H961.623C960.316 133.199 959.256 132.138 959.256 130.831V42.7634C959.256 41.4555 960.316 40.3957 961.623 40.3957H971.184C972.492 40.3957 973.552 41.4555 973.552 42.7634V87.7607C973.552 89.9774 976.325 90.9785 977.741 89.2727L997.924 64.9535C998.373 64.4118 999.041 64.0982 999.745 64.0982H1013.05C1015.11 64.0982 1016.19 66.5514 1014.79 68.0691L988.073 97.1045C987.239 98.0123 987.239 99.4087 988.076 100.314Z" fill="#FFB667"/>
<path d="M1036.76 68.8519V128.445C1036.76 131.07 1034.63 133.199 1032 133.199H1027.22C1024.59 133.199 1022.46 131.07 1022.46 128.445V68.8519C1022.46 66.2263 1024.59 64.0982 1027.22 64.0982H1032C1034.63 64.0982 1036.76 66.2263 1036.76 68.8519ZM1023.21 52.3097C1021.46 50.5535 1020.58 48.3806 1020.58 45.7878C1020.58 43.1978 1021.46 41.0222 1023.21 39.2659C1024.97 37.5113 1027.14 36.6331 1029.73 36.6331C1032.24 36.6331 1034.37 37.5113 1036.13 39.2659C1037.89 41.0222 1038.76 43.1978 1038.76 45.7878C1038.76 48.3806 1037.89 50.5535 1036.13 52.3097C1034.37 54.0654 1032.24 54.9426 1029.73 54.9426C1027.14 54.9426 1024.97 54.0654 1023.21 52.3097Z" fill="#FFB667"/>
<path d="M13.4506 136.78C15.6902 136.78 17.4694 134.92 17.3865 132.682C17.3402 131.421 17.3168 130.155 17.3168 128.887C17.3168 126.237 17.4184 123.598 17.6214 120.994C21.658 67.5375 66.4433 25.2776 120.926 25.2776C123.745 25.2776 126.552 25.3907 129.315 25.6156C134.704 26.0443 139.969 26.8901 145.1 28.1417C152.215 29.8328 159.048 32.2683 165.508 35.3693C171.056 38.0303 176.344 41.1647 181.293 44.7276C205.445 62.1141 221.852 89.6261 224.219 120.994C224.423 123.598 224.524 126.237 224.524 128.887C224.524 130.155 224.5 131.421 224.453 132.682C224.371 134.92 226.151 136.78 228.391 136.78C230.516 136.78 232.265 135.097 232.343 132.973C232.392 131.616 232.416 130.253 232.416 128.887C232.416 126.237 232.327 123.598 232.135 120.994C229.609 85.0256 209.956 53.7141 181.293 35.1885C176.288 31.9527 171.011 29.1 165.508 26.6984C159.003 23.8453 152.181 21.6021 145.1 20.0344C139.969 18.8844 134.693 18.0953 129.315 17.7005C128.691 17.6527 128.062 17.6303 127.436 17.5932C129.993 15.8001 131.65 12.9855 131.65 9.80947C131.65 4.38947 126.846 -0.00386456 120.92 -0.00386456C114.995 -0.00386456 110.191 4.38947 110.191 9.80947C110.191 12.9855 111.847 15.8001 114.405 17.5937C58.5594 20.8313 13.6141 65.3265 9.70585 120.994C9.51418 123.598 9.42407 126.237 9.42407 128.887C9.42407 130.253 9.44803 131.616 9.49751 132.973C9.57511 135.097 11.3246 136.78 13.4506 136.78Z" fill="#7AF1A7"/>
<path d="M117.242 47.1035C118.957 47.0253 120.326 45.6539 120.326 43.9368V35.1653C120.326 33.3472 118.8 31.9221 116.984 31.9961C68.8702 33.9612 29.863 71.8341 26.0984 119.479L25.8177 122.964C25.313 129.224 30.2573 134.583 36.5374 134.583H111.041C116.163 134.583 120.316 130.43 120.316 125.308V88.2893C120.316 82.0148 115.229 76.9284 108.954 76.9284H85.4245C83.0354 76.9284 81.0989 78.8648 81.0989 81.2539V87.7071C81.0989 90.0956 83.0354 92.0325 85.4245 92.0325H101.148C103.392 92.0325 105.211 93.8519 105.211 96.0961V117.391C105.211 118.544 104.277 119.479 103.124 119.479H43.0208C42.0802 119.479 41.3322 118.655 41.4412 117.721C45.9265 79.1617 77.9328 48.8899 117.242 47.1035Z" fill="#7AF1A7"/>
<path d="M141.899 34.2388C138.703 33.5153 135.448 32.9535 132.139 32.5675C130.451 32.3705 128.957 33.6565 128.957 35.356V125.884C128.957 130.688 132.852 134.583 137.657 134.583H209.495C213.109 134.583 216.013 131.655 216.051 128.041C216.111 122.278 215.641 116.48 214.673 110.848C212.652 99.1117 208.468 88.1169 202.559 78.2721C201.343 76.2477 198.221 77.1253 198.221 79.4863V119.464L180.948 119.477C179.703 119.478 178.693 118.469 178.693 117.224V55.5201C178.693 52.9368 177.432 50.5139 175.316 49.032C172.661 47.1743 169.908 45.4492 167.065 43.8669C165.508 43.0013 163.589 44.1216 163.589 45.9029V116.898C163.589 118.324 162.433 119.479 161.008 119.479H146.315C145.071 119.479 144.061 118.47 144.061 117.225V36.9805C144.061 35.6768 143.169 34.5268 141.899 34.2388Z" fill="#FFB667"/>
<path d="M238.005 143.103H3.83489C1.71719 143.103 0 144.82 0 146.938C0 149.056 1.71719 150.773 3.83489 150.773H238.005C240.124 150.773 241.84 149.056 241.84 146.938C241.84 144.82 240.124 143.103 238.005 143.103Z" fill="#7AF1A7"/>
</g>
<defs>
<clipPath id="clip0_2192_776">
<rect width="1038.76" height="150.773" fill="white"/>
</clipPath>
</defs>
</svg>
