<svg width="472" height="294" viewBox="0 0 472 294" fill="none" xmlns="http://www.w3.org/2000/svg">
<g clip-path="url(#clip0_2195_812)">
<path d="M26.251 266.714C30.6224 266.714 34.0945 263.089 33.9332 258.724C33.8425 256.266 33.7972 253.798 33.7972 251.325C33.7972 246.158 33.9951 241.013 34.3913 235.934C42.2694 131.701 129.677 49.2988 236.011 49.2988C241.512 49.2988 246.992 49.5186 252.383 49.9584C262.903 50.7937 273.179 52.4427 283.192 54.8829C297.078 58.1809 310.413 62.9305 323.022 68.9761C333.85 74.1646 344.171 80.2767 353.831 87.2242C400.969 121.126 432.987 174.771 437.608 235.934C438.004 241.013 438.203 246.158 438.203 251.325C438.203 253.798 438.157 256.266 438.066 258.724C437.905 263.089 441.377 266.714 445.749 266.714C449.897 266.714 453.312 263.435 453.463 259.293C453.56 256.647 453.607 253.989 453.607 251.325C453.607 246.158 453.431 241.013 453.057 235.934C448.128 165.801 409.771 104.746 353.831 68.6246C344.061 62.3143 333.762 56.7518 323.022 52.0695C310.325 46.5063 297.011 42.1314 283.192 39.0757C273.179 36.8329 262.88 35.2939 252.383 34.5251C251.165 34.4309 249.938 34.3875 248.715 34.3157C253.707 30.8188 256.94 25.3296 256.94 19.1375C256.94 8.56967 247.565 0.00314331 236 0.00314331C224.434 0.00314331 215.059 8.56967 215.059 19.1375C215.059 25.3296 218.292 30.8188 223.285 34.3165C114.29 40.629 26.5703 127.39 18.943 235.934C18.569 241.013 18.3931 246.158 18.3931 251.325C18.3931 253.989 18.4399 256.647 18.5363 259.293C18.6875 263.435 22.1022 266.714 26.251 266.714Z" fill="#7ACC00"/>
<path d="M228.821 91.8572C232.169 91.7054 234.841 89.0303 234.841 85.683V68.579C234.841 65.0342 231.863 62.2553 228.317 62.4003C134.414 66.2323 58.2835 140.08 50.9359 232.981L50.3879 239.778C49.4037 251.983 59.0531 262.432 71.3102 262.432H216.718C226.715 262.432 234.82 254.335 234.82 244.346V172.165C234.82 159.93 224.892 150.013 212.646 150.013H166.723C162.061 150.013 158.28 153.788 158.28 158.447V171.029C158.28 175.688 162.061 179.463 166.723 179.463H197.41C201.791 179.463 205.341 183.011 205.341 187.387V228.91C205.341 231.158 203.517 232.981 201.267 232.981H83.9638C82.1284 232.981 80.6687 231.376 80.8806 229.553C89.6355 154.367 152.101 95.3406 228.821 91.8572Z" fill="#7ACC00"/>
<path d="M276.822 66.7461C270.596 65.3424 264.257 64.252 257.81 63.5042C254.552 63.1258 251.686 65.6744 251.686 68.9515V245.47C251.686 254.838 259.288 262.432 268.665 262.432H408.871C415.847 262.432 421.583 256.846 421.664 249.876C421.793 238.572 420.878 227.198 418.978 216.151C415.034 193.279 406.875 171.852 395.35 152.663C392.968 148.696 386.867 150.374 386.867 155V226.843C386.867 230.217 384.13 232.954 380.753 232.956L353.156 232.978C350.727 232.979 348.755 231.012 348.755 228.583V108.269C348.755 103.283 346.372 98.5668 342.287 95.7048C337.057 92.0397 331.625 88.6392 326.018 85.5237C322.996 83.8448 319.277 86.0621 319.277 89.5164V227.949C319.277 230.728 317.021 232.981 314.24 232.981H285.563C283.134 232.981 281.165 231.013 281.165 228.586V72.1186C281.165 69.5296 279.35 67.3159 276.822 66.7461Z" fill="#FDC700"/>
<path d="M464.515 279.045H7.48483C3.35118 279.045 0 282.393 0 286.522C0 290.653 3.35118 294 7.48483 294H464.515C468.649 294 472 290.653 472 286.522C472 282.393 468.649 279.045 464.515 279.045Z" fill="#7ACC00"/>
</g>
<defs>
<clipPath id="clip0_2195_812">
<rect width="472" height="294" fill="white"/>
</clipPath>
</defs>
</svg>
